<mxfile host="app.diagrams.net" agent="Mozilla/5.0 (X11; Linux x86_64; rv:138.0) Gecko/20100101 Firefox/138.0" version="27.1.1">
  <diagram name="Page-1" id="HRGJyEPGa_MsWdXGEaco">
    <mxGraphModel dx="1424" dy="802" grid="1" gridSize="10" guides="1" tooltips="1" connect="1" arrows="1" fold="1" page="1" pageScale="1" pageWidth="850" pageHeight="1100" math="0" shadow="0">
      <root>
        <mxCell id="0" />
        <mxCell id="1" parent="0" />
        <mxCell id="yIRdzj23Edwq_WL7bTfc-16" value="Post Processing" style="swimlane;whiteSpace=wrap;html=1;" vertex="1" parent="1">
          <mxGeometry x="80" y="140" width="270" height="400" as="geometry">
            <mxRectangle x="150" y="110" width="270" height="30" as="alternateBounds" />
          </mxGeometry>
        </mxCell>
        <mxCell id="yIRdzj23Edwq_WL7bTfc-58" value="&lt;font style=&quot;font-size: 15px;&quot;&gt;Load predicted points&lt;/font&gt;" style="ellipse;whiteSpace=wrap;html=1;" vertex="1" parent="yIRdzj23Edwq_WL7bTfc-16">
          <mxGeometry x="57.09" y="30" width="155" height="50" as="geometry" />
        </mxCell>
        <mxCell id="yIRdzj23Edwq_WL7bTfc-59" value="&lt;div&gt;&lt;font style=&quot;font-size: 15px;&quot;&gt;Rotate prediction to align with GPS&lt;/font&gt;&lt;/div&gt;&lt;div&gt;take bearing between GPS points&lt;/div&gt;&lt;div&gt;rotate predicted points to same bearing&lt;/div&gt;" style="rounded=1;whiteSpace=wrap;html=1;" vertex="1" parent="yIRdzj23Edwq_WL7bTfc-16">
          <mxGeometry x="10" y="150" width="249.18" height="60" as="geometry" />
        </mxCell>
        <mxCell id="yIRdzj23Edwq_WL7bTfc-68" value="&lt;div&gt;&lt;font style=&quot;font-size: 15px;&quot;&gt;Scale predicted points with GPS&lt;/font&gt;&lt;/div&gt;&lt;div&gt;take distance between GPS and predicted points&lt;/div&gt;&lt;div&gt;calculate ratio&lt;/div&gt;&lt;div&gt;apply ratio to predicted points distance&lt;/div&gt;" style="rounded=1;whiteSpace=wrap;html=1;" vertex="1" parent="yIRdzj23Edwq_WL7bTfc-16">
          <mxGeometry x="10" y="230" width="250" height="90" as="geometry" />
        </mxCell>
        <mxCell id="yIRdzj23Edwq_WL7bTfc-66" value="&lt;font style=&quot;font-size: 15px;&quot;&gt;Load GPS points&lt;/font&gt;" style="rounded=1;whiteSpace=wrap;html=1;" vertex="1" parent="yIRdzj23Edwq_WL7bTfc-16">
          <mxGeometry x="66.37000000000002" y="100" width="136.44" height="30" as="geometry" />
        </mxCell>
        <mxCell id="yIRdzj23Edwq_WL7bTfc-69" value="" style="endArrow=classic;html=1;rounded=0;exitX=0.5;exitY=1;exitDx=0;exitDy=0;entryX=0.5;entryY=0;entryDx=0;entryDy=0;" edge="1" parent="yIRdzj23Edwq_WL7bTfc-16" source="yIRdzj23Edwq_WL7bTfc-58" target="yIRdzj23Edwq_WL7bTfc-66">
          <mxGeometry width="50" height="50" relative="1" as="geometry">
            <mxPoint x="109.58" y="380" as="sourcePoint" />
            <mxPoint x="159.57999999999998" y="330" as="targetPoint" />
          </mxGeometry>
        </mxCell>
        <mxCell id="yIRdzj23Edwq_WL7bTfc-70" value="" style="endArrow=classic;html=1;rounded=0;exitX=0.5;exitY=1;exitDx=0;exitDy=0;entryX=0.5;entryY=0;entryDx=0;entryDy=0;" edge="1" parent="yIRdzj23Edwq_WL7bTfc-16" source="yIRdzj23Edwq_WL7bTfc-66" target="yIRdzj23Edwq_WL7bTfc-59">
          <mxGeometry width="50" height="50" relative="1" as="geometry">
            <mxPoint x="109.58" y="380" as="sourcePoint" />
            <mxPoint x="159.57999999999998" y="330" as="targetPoint" />
          </mxGeometry>
        </mxCell>
        <mxCell id="yIRdzj23Edwq_WL7bTfc-71" value="" style="endArrow=classic;html=1;rounded=0;exitX=0.5;exitY=1;exitDx=0;exitDy=0;" edge="1" parent="yIRdzj23Edwq_WL7bTfc-16" source="yIRdzj23Edwq_WL7bTfc-59" target="yIRdzj23Edwq_WL7bTfc-68">
          <mxGeometry width="50" height="50" relative="1" as="geometry">
            <mxPoint x="109.58" y="380" as="sourcePoint" />
            <mxPoint x="159.57999999999998" y="330" as="targetPoint" />
          </mxGeometry>
        </mxCell>
        <mxCell id="yIRdzj23Edwq_WL7bTfc-72" value="" style="endArrow=classic;html=1;rounded=0;exitX=0.5;exitY=1;exitDx=0;exitDy=0;entryX=0.5;entryY=0;entryDx=0;entryDy=0;" edge="1" parent="yIRdzj23Edwq_WL7bTfc-16" source="yIRdzj23Edwq_WL7bTfc-68" target="yIRdzj23Edwq_WL7bTfc-99">
          <mxGeometry width="50" height="50" relative="1" as="geometry">
            <mxPoint x="139.57999999999998" y="440" as="sourcePoint" />
            <mxPoint x="134.58500000000004" y="340" as="targetPoint" />
          </mxGeometry>
        </mxCell>
        <mxCell id="yIRdzj23Edwq_WL7bTfc-99" value="&lt;font style=&quot;font-size: 15px;&quot;&gt;Save points&lt;/font&gt;" style="ellipse;whiteSpace=wrap;html=1;" vertex="1" parent="yIRdzj23Edwq_WL7bTfc-16">
          <mxGeometry x="90" y="340" width="90" height="50" as="geometry" />
        </mxCell>
      </root>
    </mxGraphModel>
  </diagram>
</mxfile>
